{"title":"Samlingen 2012 720p Cam Xvid Happyviking","uid":7960773,"size":1307025522,"categoryP":"video","categoryS":"hd___movies","magnet":"?xt=urn:btih:309135d281abc7c49bdded09a6abef9d005ebfcb&amp;dn=Samlingen+2012+720p+Cam+Xvid+Happyviking&amp;tr=udp%3A%2F%2Ftracker.openbittorrent.com%3A80&amp;tr=udp%3A%2F%2Fopen.demonii.com%3A1337&amp;tr=udp%3A%2F%2Ftracker.coppersurfer.tk%3A6969&amp;tr=udp%3A%2F%2Fexodus.desync.com%3A6969","seeders":0,"leechers":0,"uploader":"Happyviking","files":-1,"time":1356576513,"description":"The.Collection.2012.720p.CAM.XVID-26K\n &lt;a href=&quot;\nhttp://uk.imdb.com/title/tt1748227/&quot; rel=&quot;nofollow&quot; target=&quot;_NEW&quot;&gt;\nhttp://uk.imdb.com/title/tt1748227/&lt;/a&gt;\n\nPlot:\nA man who escapes from the vicious grips of the serial killer known as &quot;The Collector&quot; is blackmailed to rescue an innocent girl from the killer's booby-trapped warehouse.\n\nSources - Audio-friend....Thanks \n         VIDEO-friend.....Thanks \n         Subs-N/A....\nVideo\nID                                       : 0\nFormat                                   : MPEG-4 Visual\nFormat profile                           : Advanced Simple@L5\nFormat settings, BVOP                    : 2\nFormat settings, QPel                    : No\nFormat settings, GMC                     : No warppoints\nFormat settings, Matrix                  : Default (H.263)\nMuxing mode                              : Packed bitstream\nCodec ID                                 : XVID\nCodec ID/Hint                            : XviD\nDuration                                 : 1h 13mn\nBit rate                                 : 1 994 Kbps\nWidth                                    : 1 280 pixels\nHeight                                   : 650 pixels\nDisplay aspect ratio                     : 1.969\nFrame rate                               : 29.970 fps\nColor space                              : YUV\nChroma subsampling                       : 4:2:0\nBit depth                                : 8 bits\nScan type                                : Progressive\nCompression mode                         : Lossy\nBits/(Pixel*Frame)                       : 0.080\nStream size                              : 1.02 GiB (86%)\nWriting library                          : XviD 64\n\nAudio\nID                                       : 1\nFormat                                   : MPEG Audio\nFormat version                           : Version 1\nFormat profile                           : Layer 3\nMode                                     : Joint stereo\nMode extension                           : MS Stereo\nCodec ID                                 : 55\nCodec ID/Hint                            : MP3\nDuration                                 : 1h 13mn\nBit rate mode                            : Constant\nBit rate                                 : 320 Kbps\nChannel(s)                               : 2 channels\nSampling rate                            : 48.0 KHz\nCompression mode                         : Lossy\nDelay relative to video                  : 17ms\nStream size                              : 168 MiB (14%)\nAlignment                                : Split accross interleaves\nInterleave, duration                     : 6547 ms (196.20 video frames)\nWriting library                          : LAME3.99.5\n\nNotes -\nran a few filters turned out preety nice... it is watachable on the darker scenes.. slightly cropped from the right and left.. other than that a decent copy for a first cam.. enjoy\n &lt;a href=&quot;\nhttp://www.shotpix.com/images/28527923033898307649.png&quot; rel=&quot;nofollow&quot; target=&quot;_NEW&quot;&gt;\nhttp://www.shotpix.com/images/28527923033898307649.png&lt;/a&gt;\n &lt;a href=&quot;\nhttp://www.shotpix.com/images/69839403536637757558.png&quot; rel=&quot;nofollow&quot; target=&quot;_NEW&quot;&gt;\nhttp://www.shotpix.com/images/69839403536637757558.png&lt;/a&gt;\n &lt;a href=&quot;\nhttp://www.shotpix.com/images/02059760721735815521.png&quot; rel=&quot;nofollow&quot; target=&quot;_NEW&quot;&gt;\nhttp://www.shotpix.com/images/02059760721735815521.png&lt;/a&gt;\n &lt;a href=&quot;\nhttp://www.shotpix.com/images/51619748816032568046.png&quot; rel=&quot;nofollow&quot; target=&quot;_NEW&quot;&gt;\nhttp://www.shotpix.com/images/51619748816032568046.png&lt;/a&gt;\n &lt;a href=&quot;\nhttp://www.shotpix.com/images/31611531207414199123.png&quot; rel=&quot;nofollow&quot; target=&quot;_NEW&quot;&gt;\nhttp://www.shotpix.com/images/31611531207414199123.png&lt;/a&gt;\n &lt;a href=&quot;\nhttp://www.shotpix.com/images/50745519291077778636.png&quot; rel=&quot;nofollow&quot; target=&quot;_NEW&quot;&gt;\nhttp://www.shotpix.com/images/50745519291077778636.png&lt;/a&gt;\n &lt;a href=&quot;\nhttp://www.shotpix.com/images/36991726678806295018.png&quot; rel=&quot;nofollow&quot; target=&quot;_NEW&quot;&gt;\nhttp://www.shotpix.com/images/36991726678806295018.png&lt;/a&gt;\n &lt;a href=&quot;\nhttp://www.shotpix.com/images/15174777854489574352.jpg&quot; rel=&quot;nofollow&quot; target=&quot;_NEW&quot;&gt;\nhttp://www.shotpix.com/images/15174777854489574352.jpg&lt;/a&gt;\n &lt;a href=&quot;\nhttp://www.shotpix.com/images/04699402158959467301.png&quot; rel=&quot;nofollow&quot; target=&quot;_NEW&quot;&gt;\nhttp://www.shotpix.com/images/04699402158959467301.png&lt;/a&gt;\n &lt;a href=&quot;\nhttp://www.shotpix.com/images/66144411480657055256.png&quot; rel=&quot;nofollow&quot; target=&quot;_NEW&quot;&gt;\nhttp://www.shotpix.com/images/66144411480657055256.png&lt;/a&gt;\n","torrent":{"xt":"urn:btih:309135d281abc7c49bdded09a6abef9d005ebfcb","amp;dn":"Samlingen+2012+720p+Cam+Xvid+Happyviking","amp;tr":["udp%3A%2F%2Ftracker.openbittorrent.com%3A80","udp%3A%2F%2Fopen.demonii.com%3A1337","udp%3A%2F%2Ftracker.coppersurfer.tk%3A6969","udp%3A%2F%2Fexodus.desync.com%3A6969"],"infoHash":"309135d281abc7c49bdded09a6abef9d005ebfcb","infoHashBuffer":{"type":"Buffer","data":[48,145,53,210,129,171,199,196,155,221,237,9,166,171,239,157,0,94,191,203]},"announce":[],"urlList":[]}}